<svg width="14" height="9" viewBox="0 0 14 9" fill="none" xmlns="http://www.w3.org/2000/svg">
<path fill-rule="evenodd" clip-rule="evenodd" d="M7.60969 7.86335C7.42216 8.05082 7.16785 8.15614 6.90269 8.15614C6.63752 8.15614 6.38321 8.05082 6.19569 7.86335L0.538687 2.20635C0.443177 2.1141 0.366994 2.00376 0.314585 1.88175C0.262176 1.75975 0.23459 1.62853 0.233436 1.49575C0.232282 1.36297 0.257584 1.23129 0.307865 1.1084C0.358146 0.985499 0.432399 0.873846 0.526292 0.779954C0.620185 0.686061 0.731836 0.611808 0.854733 0.561527C0.977629 0.511246 1.10931 0.485944 1.24209 0.487098C1.37487 0.488252 1.50609 0.515838 1.62809 0.568247C1.7501 0.620656 1.86044 0.696838 1.95269 0.792348L6.90269 5.74235L11.8527 0.792348C12.0413 0.61019 12.2939 0.509396 12.5561 0.511674C12.8183 0.513953 13.0691 0.619122 13.2545 0.80453C13.4399 0.989938 13.5451 1.24075 13.5474 1.50295C13.5496 1.76514 13.4488 2.01775 13.2667 2.20635L7.60969 7.86335Z" fill="black"/>
</svg>
